<svg xmlns="http://www.w3.org/2000/svg" xmlns:xlink="http://www.w3.org/1999/xlink" display="none">
    <symbol id='logo' width="220" height="17" viewBox="0 0 220 17" fill="none">
        <g id="logo">
            <g id="log0">
                <g id="Group">
                    <g id="Group_2">
                        <g id="Group_3">
                            <g id="Group_4">
                                <g id="Group_5">
                                    <path id="Vector"
                                        d="M29.7206 5.56241C29.7206 3.09499 28.0945 1.63281 25.3845 1.63281H17.5254V15.9804H19.2417V9.5834H24.5715L28.1849 15.9804H30.0819L26.4685 9.5834C28.4559 9.21786 29.7206 7.57291 29.7206 5.56241ZM19.1514 7.93845V3.27776H25.2942C26.9202 3.27776 27.8235 4.19162 27.8235 5.6538C27.8235 7.11598 26.9202 8.02984 25.2038 8.02984H19.1514V7.93845Z"
                                        fill="#F6F6F6" />
                                    <path id="Vector_2"
                                        d="M31.166 3.27776H36.9474V15.889H38.6638V3.27776H44.4452V1.63281H31.166V3.27776Z"
                                        fill="#F6F6F6" />
                                    <path id="Vector_3"
                                        d="M123.94 7.93845C124.572 7.29875 125.114 6.38489 125.114 5.28826C125.114 3.27776 123.398 1.63281 121.41 1.63281C121.32 1.63281 112.738 1.63281 112.738 1.63281V15.889H121.23H121.681C124.03 15.889 126.017 13.9699 126.017 11.5939C126.108 10.0403 125.114 8.66954 123.94 7.93845ZM114.455 3.27776C114.455 3.27776 121.32 3.27776 121.41 3.27776C122.494 3.27776 123.398 4.19162 123.398 5.28826C123.398 6.38489 122.585 7.29875 121.501 7.29875H114.455V3.27776ZM121.681 14.3355H114.455V8.9437H121.772C123.217 8.9437 124.391 10.1317 124.391 11.5939C124.391 13.0561 123.217 14.3355 121.681 14.3355Z"
                                        fill="#F6F6F6" />
                                    <path id="Vector_4"
                                        d="M85.8176 1.63281C81.9332 1.63281 78.7715 4.83133 78.7715 8.76093C78.7715 12.6905 81.9332 15.889 85.8176 15.889C89.702 15.889 92.8637 12.6905 92.8637 8.76093C92.8637 4.83133 89.702 1.63281 85.8176 1.63281ZM85.8176 14.2441C82.8365 14.2441 80.3975 11.7767 80.3975 8.76093C80.3975 5.74519 82.8365 3.27776 85.8176 3.27776C88.7986 3.27776 91.2377 5.74519 91.2377 8.76093C91.2377 11.8681 88.7986 14.2441 85.8176 14.2441Z"
                                        fill="#F6F6F6" />
                                    <path id="Vector_5"
                                        d="M102.349 1.63281C98.4644 1.63281 95.3027 4.83133 95.3027 8.76093C95.3027 12.6905 98.4644 15.889 102.349 15.889C106.233 15.889 109.395 12.6905 109.395 8.76093C109.485 4.83133 106.324 1.63281 102.349 1.63281ZM102.349 14.2441C99.3678 14.2441 96.9288 11.7767 96.9288 8.76093C96.9288 5.74519 99.3678 3.27776 102.349 3.27776C105.33 3.27776 107.769 5.74519 107.769 8.76093C107.769 11.8681 105.42 14.2441 102.349 14.2441Z"
                                        fill="#F6F6F6" />
                                    <path id="Vector_6"
                                        d="M74.2544 3.75754C71.454 0.924571 67.0276 0.924571 64.2272 3.75754C61.4269 6.59051 61.4269 11.0684 64.2272 13.9014C66.7566 16.4602 70.8217 16.643 73.622 14.4497L75.1577 16.0033L76.3321 14.8153L74.7964 13.2617C76.9644 10.4287 76.7837 6.31635 74.2544 3.75754ZM65.4016 12.7134C63.3239 10.6115 63.3239 7.13882 65.4016 4.94556C67.4793 2.84368 70.912 2.84368 73.08 4.94556C75.1577 7.04744 75.1577 10.5201 73.08 12.7134C70.912 14.8153 67.4793 14.8153 65.4016 12.7134Z"
                                        fill="#F6F6F6" />
                                    <path id="Vector_7"
                                        d="M7.04611 1.63281C3.16171 1.63281 0 4.83133 0 8.76093C0 12.6905 3.16171 15.889 7.04611 15.889C10.9305 15.889 14.0922 12.6905 14.0922 8.76093C14.1825 4.83133 11.0208 1.63281 7.04611 1.63281ZM7.04611 3.27776C9.75615 3.27776 12.0145 5.28826 12.3759 7.93845H1.71636C2.0777 5.37964 4.33607 3.27776 7.04611 3.27776ZM7.04611 14.2441C4.33607 14.2441 2.0777 12.2336 1.71636 9.5834H12.3759C12.0145 12.2336 9.84648 14.2441 7.04611 14.2441Z"
                                        fill="#F6F6F6" />
                                    <path id="Vector_8"
                                        d="M52.6652 1.63281C48.7809 1.63281 45.6191 4.83133 45.6191 8.76093C45.6191 12.6905 48.7809 15.889 52.6652 15.889C56.5496 15.889 59.7113 12.6905 59.7113 8.76093C59.7113 4.83133 56.5496 1.63281 52.6652 1.63281ZM52.6652 3.27776C55.3753 3.27776 57.6336 5.28826 57.995 7.93845H47.3355C47.6968 5.37964 49.9552 3.27776 52.6652 3.27776ZM52.6652 14.2441C49.9552 14.2441 47.6968 12.2336 47.3355 9.5834H58.0853C57.6336 12.2336 55.3753 14.2441 52.6652 14.2441Z"
                                        fill="#F6F6F6" />
                                </g>
                            </g>
                        </g>
                    </g>
                </g>
            </g>
            <rect id="Rectangle 241" x="134" width="65" height="17" rx="8.5" fill="#F6F6F6" />
            <g id="online">
                <path
                    d="M147.207 6.58203C146.755 7.0332 146.53 7.58545 146.53 8.23877C146.53 8.89209 146.755 9.4458 147.207 9.8999C147.661 10.354 148.214 10.5811 148.868 10.5811C149.524 10.5811 150.078 10.354 150.529 9.8999C150.983 9.4458 151.21 8.89209 151.21 8.23877C151.21 7.58545 150.983 7.0332 150.529 6.58203C150.078 6.12793 149.524 5.90088 148.868 5.90088C148.214 5.90088 147.661 6.12793 147.207 6.58203ZM146.499 10.5371C145.86 9.91016 145.541 9.14404 145.541 8.23877C145.541 7.3335 145.86 6.56738 146.499 5.94043C147.138 5.31348 147.927 5 148.868 5C149.811 5 150.602 5.31348 151.241 5.94043C151.879 6.56738 152.199 7.3335 152.199 8.23877C152.199 9.14404 151.879 9.91016 151.241 10.5371C150.602 11.1641 149.811 11.4775 148.868 11.4775C147.927 11.4775 147.138 11.1641 146.499 10.5371Z"
                    fill="black" />
                <path
                    d="M158.908 5.08789H159.897V11.3896H159.045L155.533 6.8457V11.3896H154.545V5.08789H155.397L158.908 9.63623V5.08789Z"
                    fill="black" />
                <path d="M166.646 11.3896H162.599V5.08789H163.588V10.4888H166.646V11.3896Z"
                    fill="black" />
                <path d="M168.72 11.3896V5.08789H169.708V11.3896H168.72Z" fill="black" />
                <path
                    d="M176.769 5.08789H177.758V11.3896H176.906L173.394 6.8457V11.3896H172.406V5.08789H173.258L176.769 9.63623V5.08789Z"
                    fill="black" />
                <path
                    d="M181.449 10.4888H185.004V11.3896H180.46V5.08789H184.916V5.98877H181.449V7.6543H184.195V8.55518H181.449V10.4888Z"
                    fill="black" />
            </g>
            <path id="Ellipse 14"
                d="M219.814 8.33203C219.814 11.9219 216.904 14.832 213.314 14.832C209.725 14.832 206.814 11.9219 206.814 8.33203C206.814 4.74218 209.725 1.83203 213.314 1.83203C216.904 1.83203 219.814 4.74218 219.814 8.33203Z"
                fill="#E21414" />
        </g>
    </symbol>
    <symbol id='shopping-box' width="20" height="19" viewBox="0 0 20 19" fill="none">
        <path
            d="M1.62142 9.52135C1.29724 7.68434 2.71037 6 4.57577 6H6.55882H13.4412H15.4242C17.2896 6 18.7028 7.68434 18.3786 9.52136L17.3198 15.5214C17.0668 16.9549 15.8211 18 14.3654 18H5.63459C4.17887 18 2.93322 16.9549 2.68024 15.5214L1.62142 9.52135Z"
            stroke="currentColor" stroke-width="1.6" />
        <path d="M14 9V5C14 2.79086 12.2091 1 10 1V1C7.79086 1 6 2.79086 6 5V9"
            stroke="currentColor" stroke-width="1.6" stroke-linecap="round" />
    </symbol>
    <symbol id='dropdown-more' width="8" height="5" viewBox="0 0 8 5" fill="none">
        <path d="M1 1L4 4L7 1" stroke="currentColor" stroke-width="1.6" stroke-linejoin="round" />
    </symbol>
    <symbol id='user' width="20" height="20" viewBox="0 0 20 20" fill="none">
        <g id="user">
            <circle id="Ellipse 106" cx="10" cy="6" r="5" stroke="currentColor" stroke-width="1.6"
                stroke-linecap="round" />
            <path id="Ellipse 107"
                d="M1 19C1.55793 15.0537 5.37464 12 10 12C14.6254 12 18.4421 15.0537 19 19"
                stroke="currentColor" stroke-width="1.6" stroke-linecap="round" />
        </g>
    </symbol>
    <symbol id='watch' width="9" height="11" viewBox="0 0 9 11" fill="none">
        <path id="Vector 1" d="M0 11V0L9 5L0 11Z" fill="currentColor" />
    </symbol>
    <symbol id='play-110' width="110" height="110" viewBox="0 0 110 110" fill="none">
        <g id="&#208;&#191;&#208;&#187;&#208;&#181;&#208;&#185;">
            <circle id="Ellipse 15" cx="55" cy="55" r="54.2" stroke="#E21414" stroke-width="1.6" />
            <path id="Polygon 3" d="M62 55.5L52.25 61.1292L52.25 49.8708L62 55.5Z" fill="#E21414" />
        </g>
    </symbol>
    <symbol id='play-70' width="70" height="70" viewBox="0 0 70 70" fill="none">
        <g id="&#208;&#191;&#208;&#187;&#208;&#181;&#208;&#185;">
            <circle id="Ellipse 15" cx="35" cy="35" r="34.2" stroke="#E21414" stroke-width="1.6" />
            <path id="Polygon 3" d="M42 34.5L32.25 40.1292L32.25 28.8708L42 34.5Z" fill="#E21414" />
        </g>
    </symbol>
    <!-- footer -->
    <symbol id='inst' fill="none" width="18" height="18" viewBox="0 0 18 18">
        <path id="Exclude" fill-rule="evenodd" clip-rule="evenodd"
            d="M18 12.7218C18 14.2782 17.4566 15.6316 16.5057 16.5789C15.5547 17.5263 14.1962 18 12.7019 18H5.29811C3.80377 18 2.44528 17.5263 1.49434 16.5789C0.475472 15.6316 0 14.2782 0 12.7218V5.2782C0 2.16541 2.10566 0 5.29811 0H12.7698C14.3321 0 15.6226 0.541354 16.5736 1.48872C17.5245 2.43609 18 3.72181 18 5.2782V12.7218ZM12.7019 1.62406H5.23019C4.1434 1.62406 3.19245 1.9624 2.58113 2.57143C1.96981 3.18045 1.63019 4.12782 1.63019 5.21052V12.6541C1.63019 13.7368 1.96981 14.6842 2.64906 15.3609C3.3283 15.9699 4.21132 16.3083 5.29811 16.3083H12.7019C13.7887 16.3083 14.7396 15.9699 15.3509 15.3609C16.0302 14.7519 16.3698 13.8045 16.3698 12.7218V5.27819C16.3698 4.19549 16.0302 3.31579 15.4189 2.6391C14.7396 1.9624 13.8566 1.62406 12.7019 1.62406ZM8.96604 13.5338C6.38491 13.5338 4.34717 11.4361 4.34717 8.93233C4.34717 6.3609 6.45283 4.33083 8.96604 4.33083C11.4792 4.33083 13.6528 6.3609 13.6528 8.93233C13.6528 11.5038 11.5472 13.5338 8.96604 13.5338ZM13.7887 5.21052C13.1774 5.21052 12.7019 4.73684 12.7019 4.12782C12.7019 3.51879 13.1774 3.04511 13.7887 3.04511C14.4 3.04511 14.8755 3.51879 14.8755 4.12782C14.8755 4.73684 14.4 5.21052 13.7887 5.21052ZM11.9547 8.93231C11.9547 10.5767 10.6167 11.9098 8.96606 11.9098C7.31546 11.9098 5.97739 10.5767 5.97739 8.93231C5.97739 7.28791 7.31546 5.95487 8.96606 5.95487C10.6167 5.95487 11.9547 7.28791 11.9547 8.93231Z"
            fill="currentColor" />
    </symbol>
    <symbol id='facebook' fill="none" width="9" height="18" viewBox="0 0 9 18">
        <path id="Vector"
            d="M8.05823 8.99889H5.5775V18H1.85806V9H0V5.8977H1.85806V4.03521C1.85806 1.50462 2.9073 0 5.88773 0H8.36957V3.1023H6.81842C5.65838 3.1023 5.58082 3.53663 5.58082 4.34433L5.5775 5.8977H8.3873L8.05823 8.99889Z"
            fill="currentColor" />
    </symbol>
    <symbol id='youtube' fill="none" width="20" height="16" viewBox="0 0 20 16">
        <path id="Exclude" fill-rule="evenodd" clip-rule="evenodd"
            d="M19.7997 12.0295C19.7997 12.0295 20 10.2638 20 8.49801V6.8429C20 5.07714 19.7997 3.31139 19.7997 3.31139C19.7997 3.31139 19.6052 1.80696 19.0055 1.14421C18.3178 0.358877 17.5547 0.27962 17.1263 0.235118C17.0808 0.230391 17.0391 0.226056 17.0016 0.221308C14.2035 0 10.0046 0 10.0046 0H9.9954C9.9954 0 5.7965 0 2.99839 0.221308C2.96096 0.226036 2.91933 0.230356 2.87396 0.235061C2.44496 0.279563 1.68253 0.358653 0.994475 1.14539C0.395948 1.80814 0.200277 3.31256 0.200277 3.31256C0.200277 3.31256 0 5.07714 0 6.8429V8.49801C0 10.2649 0.200277 12.0295 0.200277 12.0295C0.200277 12.0295 0.394797 13.5328 0.994475 14.1943C1.62704 14.9146 2.42222 15.0191 2.92892 15.0856C3.03258 15.0992 3.12417 15.1113 3.19982 15.1267C4.79972 15.2938 10 15.3456 10 15.3456C10 15.3456 14.2023 15.3386 17.0016 15.1196C17.0406 15.1144 17.0842 15.1097 17.1317 15.1046C17.5618 15.0583 18.3205 14.9766 19.0055 14.1943C19.6041 13.534 19.7997 12.0295 19.7997 12.0295ZM13.7546 7.67281L7.50227 11.5092V3.83641L13.7546 7.67281Z"
            fill="currentColor" />
    </symbol>
    <symbol id='visa' fill="none" width="53" height="16" viewBox="0 0 53 16">
        <g id="visa">
            <g id="_380519952">
                <path id="_380520792" fill-rule="evenodd" clip-rule="evenodd"
                    d="M19.6442 0.281257L12.9923 15.7515L8.51999 15.7568L4.73266 2.79896L4.42578 1.82265L4.4511 1.8365C4.47096 1.8472 4.49079 1.85831 4.51058 1.86909C5.19196 2.23007 8.21695 3.95504 10.0873 6.7495C10.3721 8.1707 10.6447 9.46167 11.0296 10.8542L15.1677 0.28125L19.6442 0.281257Z"
                    fill="#006CB5" />
                <path id="_380520192" fill-rule="evenodd" clip-rule="evenodd"
                    d="M37.639 10.7004C37.6078 13.9207 34.7271 16 30.286 16C28.393 15.9796 26.5675 15.6073 25.5762 15.1726L26.1698 11.7029L26.7157 11.9527C28.1062 12.5313 29.0029 12.7635 30.6949 12.7635C31.9106 12.7635 33.2103 12.2869 33.2195 11.2463C33.2249 10.5672 32.6736 10.0852 31.029 9.32603C29.4279 8.58302 27.3051 7.34187 27.3321 5.11444C27.3524 2.10084 30.2971 0 34.4718 0C36.1068 0 37.4161 0.334171 38.2554 0.651788L37.6825 4.0103L37.2994 3.82977C36.5253 3.51752 35.5228 3.2146 34.1377 3.23613C32.4876 3.23613 31.7188 3.92639 31.7188 4.57277C31.7134 5.29381 32.6154 5.77734 34.0903 6.493C36.5306 7.59712 37.6606 8.93913 37.639 10.7004Z"
                    fill="#006CB5" />
                <path id="_380520096" fill-rule="evenodd" clip-rule="evenodd"
                    d="M49.0939 0.28126H45.8316C44.8188 0.28126 44.0596 0.556923 43.6196 1.57013L37.3438 15.7719H41.7779C41.7779 15.7719 42.5043 13.8624 42.6702 13.4427C43.1522 13.4427 47.4655 13.4535 48.0807 13.4535C48.2031 13.9956 48.59 15.7719 48.59 15.7719H52.511L49.0939 0.28126ZM43.884 10.2756C44.6433 8.34719 45.4046 6.40503 46.1277 4.46167C46.5436 6.4008 46.9687 8.33779 47.3908 10.2756H43.884Z"
                    fill="#006CB5" />
                <path id="_380520432" fill-rule="evenodd" clip-rule="evenodd"
                    d="M21.3546 0.265625H25.5781L22.9353 15.7671H18.7129L21.3546 0.265625Z"
                    fill="#006CB5" />
                <path id="_380520408" fill-rule="evenodd" clip-rule="evenodd"
                    d="M5.5018e-06 0.128911L7.14653 0.133919C8.02771 0.165091 8.738 0.446085 8.98786 1.39005L10.0882 6.74999C8.21784 3.95552 5.19286 2.23057 4.51147 1.86958C4.49169 1.8588 4.47214 1.8479 4.45228 1.8372C4.33837 1.77473 4.22293 1.71303 4.10668 1.65275C2.85842 1.005 1.47789 0.485577 5.5018e-06 0.128911Z"
                    fill="#FAA841" />
            </g>
        </g>
    </symbol>
    <symbol id='mastercard' fill="none" width="39" height="24" viewBox="0 0 39 24">
        <g id="mastercard">
            <path id="rect19" d="M24.6357 2.57031H14.1348V21.4363H24.6357V2.57031Z" fill="#FF5A00" />
            <path id="XMLID_330_"
                d="M14.835 12C14.835 8.16699 16.6369 4.76505 19.4019 2.56699C17.367 0.96699 14.8 0 12 0C5.36699 0 0 5.36699 0 12C0 18.633 5.36699 24 12 24C14.8 24 17.367 23.033 19.4019 21.433C16.633 19.266 14.835 15.833 14.835 12Z"
                fill="#EB001B" />
            <path id="path22"
                d="M38.8043 12C38.8043 18.633 33.4373 24 26.8043 24C24.0043 24 21.4373 23.033 19.4023 21.433C22.2023 19.2311 23.9693 15.833 23.9693 12C23.9693 8.16699 22.1674 4.76505 19.4023 2.56699C21.4334 0.96699 24.0004 0 26.8004 0C33.4373 0 38.8043 5.40194 38.8043 12Z"
                fill="#F79E1B" />
        </g>
    </symbol>
    <symbol id='visa-and-mastercard' fill="none" width="89" height="20" viewBox="0 0 89 20">
        <g id="Group 761">
            <g id="mastercard">
                <path id="rect19" d="M76.5301 2.14062H67.7793V17.8623H76.5301V2.14062Z"
                    fill="#FF5A00" />
                <path id="XMLID_330_"
                    d="M68.3625 10C68.3625 6.80583 69.8641 3.97087 72.1683 2.13916C70.4725 0.805825 68.3333 0 66 0C60.4725 0 56 4.47249 56 10C56 15.5275 60.4725 20 66 20C68.3333 20 70.4725 19.1942 72.1683 17.8608C69.8608 16.055 68.3625 13.1942 68.3625 10Z"
                    fill="#EB001B" />
                <path id="path22"
                    d="M88.3372 10C88.3372 15.5275 83.8647 20 78.3372 20C76.0039 20 73.8647 19.1942 72.1689 17.8608C74.5023 16.0259 75.9748 13.1942 75.9748 10C75.9748 6.80583 74.4732 3.97087 72.1689 2.13916C73.8615 0.805825 76.0007 0 78.334 0C83.8647 0 88.3372 4.50162 88.3372 10Z"
                    fill="#F79E1B" />
            </g>
            <g id="visa">
                <g id="_380519952">
                    <path id="_380520792" fill-rule="evenodd" clip-rule="evenodd"
                        d="M17.1892 3.2461L11.3687 16.7825L7.45548 16.7872L4.14156 5.44909L3.87305 4.59482L3.8952 4.60694C3.91258 4.6163 3.92993 4.62602 3.94724 4.63545C4.54345 4.95131 7.19032 6.46066 8.82689 8.90581C9.07604 10.1494 9.3146 11.279 9.65141 12.4974L13.2722 3.24609L17.1892 3.2461Z"
                        fill="#006CB5" />
                    <path id="_380520192" fill-rule="evenodd" clip-rule="evenodd"
                        d="M32.9339 12.3628C32.9066 15.1806 30.386 17 26.5 17C24.8437 16.9821 23.2463 16.6564 22.3789 16.2761L22.8983 13.24L23.376 13.4586C24.5927 13.9649 25.3773 14.168 26.8578 14.168C27.9215 14.168 29.0587 13.751 29.0668 12.8405C29.0715 12.2463 28.5891 11.8246 27.1501 11.1603C25.7491 10.5101 23.8917 9.42414 23.9153 7.47514C23.9331 4.83823 26.5097 3 30.1626 3C31.5932 3 32.7388 3.2924 33.4732 3.57031L32.972 6.50902L32.6368 6.35105C31.9594 6.07783 31.0822 5.81278 29.8702 5.83161C28.4264 5.83161 27.7537 6.43559 27.7537 7.00118C27.749 7.63208 28.5383 8.05518 29.8288 8.68138C31.9641 9.64748 32.9527 10.8217 32.9339 12.3628Z"
                        fill="#006CB5" />
                    <path id="_380520096" fill-rule="evenodd" clip-rule="evenodd"
                        d="M42.9572 3.2461H40.1027C39.2164 3.2461 38.5521 3.48731 38.1671 4.37387L32.6758 16.8004H36.5557C36.5557 16.8004 37.1913 15.1296 37.3364 14.7624C37.7582 14.7624 41.5323 14.7719 42.0706 14.7719C42.1777 15.2461 42.5163 16.8004 42.5163 16.8004H45.9471L42.9572 3.2461ZM38.3985 11.9911C39.0629 10.3038 39.7291 8.6044 40.3618 6.90396C40.7256 8.6007 41.0977 10.2956 41.467 11.9911H38.3985Z"
                        fill="#006CB5" />
                    <path id="_380520432" fill-rule="evenodd" clip-rule="evenodd"
                        d="M18.6855 3.23438H22.3811L20.0687 16.7982H16.374L18.6855 3.23438Z"
                        fill="#006CB5" />
                    <path id="_380520408" fill-rule="evenodd" clip-rule="evenodd"
                        d="M4.81408e-06 3.11329L6.25321 3.11767C7.02424 3.14494 7.64575 3.39081 7.86438 4.21678L8.82718 8.90673C7.19061 6.46157 4.54375 4.95223 3.94754 4.63637C3.93023 4.62694 3.91312 4.6174 3.89574 4.60804C3.79607 4.55338 3.69506 4.49939 3.59334 4.44664C2.50112 3.87986 1.29315 3.42537 4.81408e-06 3.11329Z"
                        fill="#FAA841" />
                </g>
            </g>
        </g>
    </symbol>
    <symbol id="like" width="16" height="14" viewBox="0 0 16 14" fill="none"
        xmlns="http://www.w3.org/2000/svg">
        <path
            d="M6.0664 12.1059L6.06638 12.1059C4.91208 11.1907 3.57119 9.99592 2.52592 8.69349C1.46398 7.37028 0.8 6.05029 0.8 4.86923C0.8 2.82411 1.76417 1.49307 2.95002 1.01343C4.12197 0.539402 5.78742 0.788648 7.42204 2.49662L8 3.10053L8.57796 2.49662C10.2126 0.788641 11.878 0.539365 13.05 1.01337C14.2358 1.493 15.2 2.82402 15.2 4.8692C15.2 6.05032 14.536 7.37032 13.4741 8.69351C12.4288 9.99594 11.0879 11.1907 9.93364 12.1059L9.93363 12.1059C8.80591 13 8.50038 13.2 8 13.2C7.49963 13.2 7.19409 13 6.0664 12.1059Z"
            stroke="" stroke-width="1.6" />
    </symbol>
    <symbol id="plus" width="16" height="16" viewBox="0 0 16 16" fill="none"
        xmlns="http://www.w3.org/2000/svg">
        <path d="M8 0V16M16 8L0 8" stroke="black" stroke-width="1.6" />
    </symbol>
    <symbol id="minus" width="16" height="2" viewBox="0 0 16 2" fill="none"
        xmlns="http://www.w3.org/2000/svg">
        <path d="M16 1L0 1" stroke="black" stroke-width="1.6" />
    </symbol>

    <symbol id="shop-cart" width="14" height="14" viewBox="0 0 14 14" fill="none"
        xmlns="http://www.w3.org/2000/svg">
        <path
            d="M2 4L3.49415 11.396C3.68264 12.3291 4.50264 13 5.45455 13H8.54545C9.49736 13 10.3174 12.3291 10.5059 11.396L12 4"
            stroke="currentColor" stroke-width="1.4" />
        <path d="M0 4H14" stroke="currentColor" stroke-width="1.6" stroke-linejoin="round" />
        <path d="M5 1H9" stroke="currentColor" stroke-width="1.6" stroke-linejoin="round" />
    </symbol>

    <symbol id="remove" width="12" height="12" viewBox="0 0 12 12" fill="none"
        xmlns="http://www.w3.org/2000/svg">
        <path d="M1 1L11 11M11 1L1 11" stroke="currentColor" stroke-width="1.6" />
    </symbol>

    <symbol id="arrow-left" width="6" height="10" viewBox="0 0 6 10" fill="none"
        xmlns="http://www.w3.org/2000/svg">
        <path d="M5 9L1 5L5 1" stroke="currentColor" stroke-width="1.6" stroke-linejoin="round" />
    </symbol>

    <symbol id="arrow-right" width="6" height="10" viewBox="0 0 6 10" fill="none"
        xmlns="http://www.w3.org/2000/svg">
        <path d="M1 9L5 5L1 1" stroke="currentColor" stroke-width="1.6" stroke-linejoin="round" />
    </symbol>

    <symbol id="arrow-back" width="10" height="11" viewBox="0 0 10 11" fill="none"
        xmlns="http://www.w3.org/2000/svg">
        <path d="M10 5.5H1M1 5.5L5.19231 1M1 5.5L5.19231 10" stroke="currentColor" stroke-width="2"
            stroke-linejoin="round" />
    </symbol>

    <symbol id="arrow-down" width="10" height="6" viewBox="0 0 10 6" fill="none"
        xmlns="http://www.w3.org/2000/svg">
        <path d="M1 1L5 5L9 1" stroke="currentColor" stroke-width="1.6" stroke-linejoin="round" />
    </symbol>


    <symbol id="remember" width="11" height="10" viewBox="0 0 11 10" fill="none"
        xmlns="http://www.w3.org/2000/svg">
        <path d="M11 5H2M2 5L6 1M2 5L6 9" stroke="#E21414" stroke-width="1.6" />
    </symbol>

    <symbol id="quit" width="14" height="14" viewBox="0 0 14 14" fill="none"
        xmlns="http://www.w3.org/2000/svg">
        <path d="M13 0L13 14" stroke="currentColor" stroke-width="1.4" stroke-linejoin="round" />
        <path d="M0 7H8M8 7L4.5 3.5M8 7L4.5 10.5" stroke="currentColor" stroke-width="1.4"
            stroke-linejoin="round" />
    </symbol>

    <symbol id="close" width="12" height="12" viewBox="0 0 12 12" fill="none"
        xmlns="http://www.w3.org/2000/svg">
        <path d="M1 1L11 11M11 1L1 11" stroke="currentColor" stroke-width="1.6" />
    </symbol>

    <symbol id="back-order" width="15" height="19" viewBox="0 0 15 19" fill="none"
        xmlns="http://www.w3.org/2000/svg">
        <path d="M15 9.5H2M2 9.5L9.5 2M2 9.5L9.5 17" stroke="currentColor" stroke-width="3"
            stroke-linejoin="round" />
    </symbol>

    <symbol id="cart" width="14" height="14" viewBox="0 0 14 14" fill="none"
        xmlns="http://www.w3.org/2000/svg">
        <path
            d="M2 4L3.49415 11.396C3.68264 12.3291 4.50264 13 5.45455 13H8.54545C9.49736 13 10.3174 12.3291 10.5059 11.396L12 4"
            stroke="currentColor" stroke-width="1.4" />
        <path d="M0 4H14" stroke="currentColor" stroke-width="1.6" stroke-linejoin="round" />
        <path d="M5 1H9" stroke="currentColor" stroke-width="1.6" stroke-linejoin="round" />
    </symbol>

    <symbol id="favorite" width="38" height="38" viewBox="0 0 38 38" fill="none"
        xmlns="http://www.w3.org/2000/svg">
        <circle cx="19" cy="19" r="19" fill="#E21414" />
        <path
            d="M17.0664 25.1059L17.0664 25.1059C15.9121 24.1907 14.5712 22.9959 13.5259 21.6935C12.464 20.3703 11.8 19.0503 11.8 17.8692C11.8 15.8241 12.7642 14.4931 13.95 14.0134C15.122 13.5394 16.7874 13.7886 18.422 15.4966L19 16.1005L19.578 15.4966C21.2126 13.7886 22.878 13.5394 24.05 14.0134C25.2358 14.493 26.2 15.824 26.2 17.8692C26.2 19.0503 25.536 20.3703 24.4741 21.6935C23.4288 22.9959 22.0879 24.1907 20.9336 25.1059L20.9336 25.1059C19.8059 26 19.5004 26.2 19 26.2C18.4996 26.2 18.1941 26 17.0664 25.1059Z"
            fill="white" stroke="white" stroke-width="1.6" />
    </symbol>
</svg>  