<svg width="89" height="20" viewBox="0 0 89 20" fill="none" xmlns="http://www.w3.org/2000/svg">
<g id="Group 761">
<g id="mastercard">
<path id="rect19" d="M76.5301 2.14062H67.7793V17.8623H76.5301V2.14062Z" fill="#FF5A00"/>
<path id="XMLID_330_" d="M68.3625 10C68.3625 6.80583 69.8641 3.97087 72.1683 2.13916C70.4725 0.805825 68.3333 0 66 0C60.4725 0 56 4.47249 56 10C56 15.5275 60.4725 20 66 20C68.3333 20 70.4725 19.1942 72.1683 17.8608C69.8608 16.055 68.3625 13.1942 68.3625 10Z" fill="#EB001B"/>
<path id="path22" d="M88.3372 10C88.3372 15.5275 83.8647 20 78.3372 20C76.0039 20 73.8647 19.1942 72.1689 17.8608C74.5023 16.0259 75.9748 13.1942 75.9748 10C75.9748 6.80583 74.4732 3.97087 72.1689 2.13916C73.8615 0.805825 76.0007 0 78.334 0C83.8647 0 88.3372 4.50162 88.3372 10Z" fill="#F79E1B"/>
</g>
<g id="visa">
<g id="_380519952">
<path id="_380520792" fill-rule="evenodd" clip-rule="evenodd" d="M17.1892 3.2461L11.3687 16.7825L7.45548 16.7872L4.14156 5.44909L3.87305 4.59482L3.8952 4.60694C3.91258 4.6163 3.92993 4.62602 3.94724 4.63545C4.54345 4.95131 7.19032 6.46066 8.82689 8.90581C9.07604 10.1494 9.3146 11.279 9.65141 12.4974L13.2722 3.24609L17.1892 3.2461Z" fill="#006CB5"/>
<path id="_380520192" fill-rule="evenodd" clip-rule="evenodd" d="M32.9339 12.3628C32.9066 15.1806 30.386 17 26.5 17C24.8437 16.9821 23.2463 16.6564 22.3789 16.2761L22.8983 13.24L23.376 13.4586C24.5927 13.9649 25.3773 14.168 26.8578 14.168C27.9215 14.168 29.0587 13.751 29.0668 12.8405C29.0715 12.2463 28.5891 11.8246 27.1501 11.1603C25.7491 10.5101 23.8917 9.42414 23.9153 7.47514C23.9331 4.83823 26.5097 3 30.1626 3C31.5932 3 32.7388 3.2924 33.4732 3.57031L32.972 6.50902L32.6368 6.35105C31.9594 6.07783 31.0822 5.81278 29.8702 5.83161C28.4264 5.83161 27.7537 6.43559 27.7537 7.00118C27.749 7.63208 28.5383 8.05518 29.8288 8.68138C31.9641 9.64748 32.9527 10.8217 32.9339 12.3628Z" fill="#006CB5"/>
<path id="_380520096" fill-rule="evenodd" clip-rule="evenodd" d="M42.9572 3.2461H40.1027C39.2164 3.2461 38.5521 3.48731 38.1671 4.37387L32.6758 16.8004H36.5557C36.5557 16.8004 37.1913 15.1296 37.3364 14.7624C37.7582 14.7624 41.5323 14.7719 42.0706 14.7719C42.1777 15.2461 42.5163 16.8004 42.5163 16.8004H45.9471L42.9572 3.2461ZM38.3985 11.9911C39.0629 10.3038 39.7291 8.6044 40.3618 6.90396C40.7256 8.6007 41.0977 10.2956 41.467 11.9911H38.3985Z" fill="#006CB5"/>
<path id="_380520432" fill-rule="evenodd" clip-rule="evenodd" d="M18.6855 3.23438H22.3811L20.0687 16.7982H16.374L18.6855 3.23438Z" fill="#006CB5"/>
<path id="_380520408" fill-rule="evenodd" clip-rule="evenodd" d="M4.81408e-06 3.11329L6.25321 3.11767C7.02424 3.14494 7.64575 3.39081 7.86438 4.21678L8.82718 8.90673C7.19061 6.46157 4.54375 4.95223 3.94754 4.63637C3.93023 4.62694 3.91312 4.6174 3.89574 4.60804C3.79607 4.55338 3.69506 4.49939 3.59334 4.44664C2.50112 3.87986 1.29315 3.42537 4.81408e-06 3.11329Z" fill="#FAA841"/>
</g>
</g>
</g>
</svg>
